<svg width="24" height="24" viewBox="0 0 24 24" fill="none" xmlns="http://www.w3.org/2000/svg">
<path fill-rule="evenodd" clip-rule="evenodd" d="M3.17157 3.28064C3.92172 2.5305 4.93913 2.10907 6 2.10907C7.06087 2.10907 8.07828 2.5305 8.82843 3.28064C9.57857 4.03079 10 5.0482 10 6.10907V8.10907H14V6.10907C14 5.0482 14.4214 4.03079 15.1716 3.28064C15.9217 2.5305 16.9391 2.10907 18 2.10907C19.0609 2.10907 20.0783 2.5305 20.8284 3.28064C21.5786 4.03079 22 5.0482 22 6.10907C22 7.16994 21.5786 8.18735 20.8284 8.9375C20.0783 9.68764 19.0609 10.1091 18 10.1091H16V14.1091H18C19.0609 14.1091 20.0783 14.5305 20.8284 15.2806C21.5786 16.0308 22 17.0482 22 18.1091C22 19.1699 21.5786 20.1874 20.8284 20.9375C20.0783 21.6876 19.0609 22.1091 18 22.1091C16.9391 22.1091 15.9217 21.6876 15.1716 20.9375C14.4214 20.1874 14 19.1699 14 18.1091V16.1091H10V18.1091C10 19.1699 9.57857 20.1874 8.82843 20.9375C8.07828 21.6876 7.06087 22.1091 6 22.1091C4.93913 22.1091 3.92172 21.6876 3.17157 20.9375C2.42143 20.1874 2 19.1699 2 18.1091C2 17.0482 2.42143 16.0308 3.17157 15.2806C3.92172 14.5305 4.93913 14.1091 6 14.1091H8V10.1091H6C4.93913 10.1091 3.92172 9.68764 3.17157 8.9375C2.42143 8.18735 2 7.16994 2 6.10907C2 5.0482 2.42143 4.03079 3.17157 3.28064ZM8 8.10907V6.10907C8 5.57864 7.78929 5.06993 7.41421 4.69486C7.03914 4.31978 6.53043 4.10907 6 4.10907C5.46957 4.10907 4.96086 4.31978 4.58579 4.69486C4.21071 5.06993 4 5.57864 4 6.10907C4 6.6395 4.21071 7.14821 4.58579 7.52328C4.96086 7.89836 5.46957 8.10907 6 8.10907H8ZM10 10.1091V14.1091H14V10.1091H10ZM8 16.1091H6C5.46957 16.1091 4.96086 16.3198 4.58579 16.6949C4.21071 17.0699 4 17.5786 4 18.1091C4 18.6395 4.21071 19.1482 4.58579 19.5233C4.96086 19.8984 5.46957 20.1091 6 20.1091C6.53043 20.1091 7.03914 19.8984 7.41421 19.5233C7.78929 19.1482 8 18.6395 8 18.1091V16.1091ZM16 16.1091V18.1091C16 18.6395 16.2107 19.1482 16.5858 19.5233C16.9609 19.8984 17.4696 20.1091 18 20.1091C18.5304 20.1091 19.0391 19.8984 19.4142 19.5233C19.7893 19.1482 20 18.6395 20 18.1091C20 17.5786 19.7893 17.0699 19.4142 16.6949C19.0391 16.3198 18.5304 16.1091 18 16.1091H16ZM16 8.10907H18C18.5304 8.10907 19.0391 7.89836 19.4142 7.52328C19.7893 7.14821 20 6.6395 20 6.10907C20 5.57864 19.7893 5.06993 19.4142 4.69486C19.0391 4.31978 18.5304 4.10907 18 4.10907C17.4696 4.10907 16.9609 4.31978 16.5858 4.69486C16.2107 5.06993 16 5.57864 16 6.10907V8.10907Z" fill="white"/>
</svg>
