<svg width="24" height="24" viewBox="0 0 24 24" fill="none" xmlns="http://www.w3.org/2000/svg">
<path d="M15.3847 3.23317C13.5699 2.78904 11.6802 2.78904 9.86529 3.23317C8.82215 2.55013 8.015 2.22911 7.41665 2.09125C7.08574 2.01502 6.81987 1.99512 6.61592 2.00095C6.51418 2.00386 6.42885 2.01314 6.35958 2.0246C5.99979 2.08415 5.76825 2.27738 5.6457 2.57412C5.1994 3.65474 5.11439 4.85359 5.39503 5.982C4.65242 6.96944 4.24978 8.08552 4.25004 9.46309C4.25051 12.0046 5.00639 13.7165 6.26411 14.814C7.09709 15.5409 8.0894 15.9422 9.06725 16.1789C9.06085 16.1963 9.05457 16.2138 9.04841 16.2313C8.87512 16.7249 8.80175 17.2502 8.83275 17.7743V17.7888C8.22896 17.9123 7.79403 17.8921 7.47381 17.8143C7.06374 17.7147 6.75932 17.501 6.47453 17.2055C6.3272 17.0526 6.18857 16.8813 6.0401 16.6883C6.00174 16.6385 5.96093 16.5847 5.91851 16.5288C5.80866 16.3841 5.68806 16.2253 5.57156 16.0833C5.24468 15.6851 4.78198 15.2007 4.08867 15.0208C3.61931 14.899 3.1437 15.1952 3.02636 15.6822C2.90902 16.1693 3.19439 16.6629 3.66374 16.7847C3.80365 16.821 3.96587 16.931 4.23786 17.2624C4.33161 17.3766 4.41871 17.4913 4.51875 17.6232C4.56591 17.6853 4.61594 17.7512 4.6709 17.8227C4.83163 18.0316 5.01847 18.2657 5.23568 18.4911C5.67996 18.9522 6.26083 19.387 7.07456 19.5847C7.59613 19.7113 8.1768 19.7317 8.83275 19.6329V21.0909C8.83275 21.593 9.22495 22 9.70875 22C10.1925 22 10.5847 21.593 10.5847 21.0909V17.7445C10.5847 17.7232 10.584 17.702 10.5826 17.6807C10.5636 17.4 10.6017 17.1182 10.6946 16.8537C10.7874 16.5893 10.9329 16.3481 11.1215 16.1458C11.3524 15.8981 11.4286 15.5362 11.3181 15.2112C11.2076 14.8862 10.9295 14.6539 10.5999 14.6115C9.33664 14.4486 8.20638 14.1334 7.39166 13.4224C6.62088 12.7498 6.00203 11.6045 6.00205 9.46073L6.00202 9.4559C5.99699 8.47472 6.35837 7.52965 7.01031 6.81902C7.24147 6.56705 7.31379 6.20026 7.19657 5.87431C6.96513 5.23071 6.92419 4.53499 7.07175 3.87449C7.47781 3.97379 8.18183 4.24425 9.22099 4.96714C9.43163 5.11368 9.69313 5.15829 9.93789 5.08945C11.6976 4.59452 13.5525 4.59452 15.3121 5.08945C15.5711 5.16227 15.8685 5.08945 16.038 4.96714C16.6407 4.53238 17.4473 4.06321 18.1796 3.87145C18.3336 4.59943 18.2823 5.25639 18.0597 5.87431C17.9666 6.13278 17.9606 6.47798 18.2173 6.80469C18.9578 7.6413 19.248 8.49148 19.248 9.43496C19.248 11.5989 18.6274 12.7513 17.8584 13.4224C17.0468 14.1307 15.92 14.4385 14.661 14.5842C14.3288 14.6226 14.0467 14.8538 13.9337 15.1803C13.8206 15.5067 13.8965 15.8714 14.1291 16.1205C14.32 16.3248 14.4667 16.5689 14.5597 16.8366C14.6526 17.1044 14.6895 17.3895 14.668 17.6732C14.6662 17.697 14.6653 17.7207 14.6653 17.7445V21.0909C14.6653 21.593 15.0575 22 15.5413 22C16.0251 22 16.4173 21.593 16.4173 21.0909V17.7778C16.4522 17.2494 16.381 16.7191 16.208 16.2205C16.2016 16.2021 16.195 16.1837 16.1884 16.1653C17.1648 15.9366 18.1544 15.5396 18.9859 14.814C20.2458 13.7146 21 11.9918 21 9.43462C20.9998 8.17835 20.5937 6.9641 19.855 5.98201C20.1356 4.8536 20.0506 3.65474 19.6043 2.57412C19.5017 2.32571 19.3191 2.1456 18.9818 2.04278C18.9555 2.03657 18.925 2.03032 18.8905 2.0246C18.8212 2.01314 18.7359 2.00386 18.6341 2.00095C18.4302 1.99512 18.1643 2.01502 17.8334 2.09125C17.235 2.22911 16.4279 2.55013 15.3847 3.23317Z" fill="white"/>
</svg>
