<svg width="24" height="24" viewBox="0 0 24 24" fill="none" xmlns="http://www.w3.org/2000/svg">
<path fill-rule="evenodd" clip-rule="evenodd" d="M17.3333 3.33333V2H3.33333V11.3333C3.33333 14.2789 5.72115 16.6667 8.66667 16.6667H12C14.9455 16.6667 17.3333 14.2789 17.3333 11.3333H20C21.1046 11.3333 22 10.4379 22 9.33333V5.33333C22 4.22876 21.1046 3.33333 20 3.33333H17.3333ZM15.3333 11.3333V4H5.33333V11.3333C5.33333 13.1743 6.82572 14.6667 8.66667 14.6667H12C13.8409 14.6667 15.3333 13.1743 15.3333 11.3333ZM19.3333 9.15496C19.1372 9.2684 18.9095 9.33333 18.6667 9.33333H17.3333V5.33333H18.6667C18.9095 5.33333 19.1372 5.39826 19.3333 5.51171C19.7319 5.74225 20 6.17315 20 6.66667V8C20 8.49352 19.7319 8.92442 19.3333 9.15496ZM22 19.3333H2V22H22V19.3333Z" fill="white"/>
</svg>
