<svg width="24" height="24" viewBox="0 0 24 24" fill="none" xmlns="http://www.w3.org/2000/svg">
<path fill-rule="evenodd" clip-rule="evenodd" d="M4.72727 3.90476C4.2252 3.90476 3.81818 4.20129 3.81818 4.72727C3.81818 5.25326 4.2252 5.63636 4.72727 5.63636C5.22935 5.63636 5.63636 5.25326 5.63636 4.72727C5.63636 4.20129 5.22935 3.90476 4.72727 3.90476ZM2 4.72727C2 3.14932 3.22104 2 4.72727 2C6.2335 2 7.45455 3.14932 7.45455 4.72727C7.45455 6.30523 6.2335 7.45455 4.72727 7.45455C3.22104 7.45455 2 6.30523 2 4.72727ZM15.6364 9.61905C14.4308 9.61905 13.2747 10.1207 12.4222 11.0138C11.5698 11.9068 11.0909 13.118 11.0909 14.381V20.0952H12.9091V14.381C12.9091 13.6232 13.1964 12.8965 13.7079 12.3606C14.2194 11.8248 14.913 11.5238 15.6364 11.5238C16.3597 11.5238 17.0534 11.8248 17.5648 12.3606C18.0763 12.8965 18.3636 13.6232 18.3636 14.381V20.0952H20.1818V14.381C20.1818 13.118 19.7029 11.9068 18.8505 11.0138C17.998 10.1207 16.8419 9.61905 15.6364 9.61905ZM11.1366 9.66691C12.33 8.41666 13.9486 7.71429 15.6364 7.71429C17.3241 7.71429 18.9427 8.41666 20.1361 9.66691C21.3295 10.9171 22 12.6128 22 14.381V21.0476C22 21.5736 21.593 22 21.0909 22H17.4545C16.9525 22 16.5455 21.5736 16.5455 21.0476V14.381C16.5455 14.1284 16.4497 13.8861 16.2792 13.7075C16.1087 13.5289 15.8775 13.4286 15.6364 13.4286C15.3953 13.4286 15.164 13.5289 14.9935 13.7075C14.8231 13.8861 14.7273 14.1284 14.7273 14.381V21.0476C14.7273 21.5736 14.3203 22 13.8182 22H10.1818C9.67974 22 9.27273 21.5736 9.27273 21.0476V14.381C9.27273 12.6128 9.94318 10.9171 11.1366 9.66691ZM2 9.61905C2 9.09306 2.40701 8.66667 2.90909 8.66667H6.54545C7.04753 8.66667 7.45455 9.09306 7.45455 9.61905V21.0476C7.45455 21.5736 7.04753 22 6.54545 22H2.90909C2.40701 22 2 21.5736 2 21.0476V9.61905ZM3.81818 10.5714V20.0952H5.63636V10.5714H3.81818Z" fill="white"/>
</svg>
