<svg width="24" height="24" viewBox="0 0 24 24" fill="none" xmlns="http://www.w3.org/2000/svg">
<path fill-rule="evenodd" clip-rule="evenodd" d="M10.6968 2.47205C11.1067 2.23425 11.5716 2.10907 12.0448 2.10907C12.5181 2.10907 12.983 2.23426 13.393 2.47207C13.3936 2.47244 13.3942 2.4728 13.3948 2.47316L19.6948 6.09668C20.0278 6.29019 20.315 6.55251 20.5381 6.86522C20.5924 6.91991 20.6406 6.98255 20.6809 7.05267C20.7156 7.11306 20.7426 7.17581 20.7622 7.23976C20.9473 7.61431 21.0444 8.02758 21.0448 8.44745V15.6964C21.0443 16.1729 20.9194 16.641 20.6824 17.0536C20.4455 17.4662 20.1049 17.8088 19.6948 18.0471L19.6914 18.0491L13.3948 21.6706C13.3943 21.671 13.3938 21.6713 13.3932 21.6716C13.1077 21.8372 12.7956 21.9483 12.4726 22.0004C12.3453 22.0697 12.1996 22.1091 12.0448 22.1091C11.89 22.1091 11.7443 22.0697 11.6171 22.0004C11.2941 21.9483 10.982 21.8372 10.6965 21.6716C10.6959 21.6713 10.6954 21.671 10.6948 21.6706L4.3983 18.0491L4.39483 18.0471C3.98478 17.8088 3.6442 17.4662 3.40725 17.0536C3.1703 16.641 3.04532 16.1729 3.04483 15.6964V8.44745C3.04526 8.02758 3.14232 7.61432 3.32745 7.23977C3.34706 7.17581 3.37407 7.11306 3.40878 7.05267C3.44908 6.98255 3.49728 6.91991 3.5516 6.86522C3.77467 6.55251 4.06185 6.29019 4.39483 6.09669L4.3983 6.09467L10.6968 2.47205ZM4.84483 8.93533V15.6949C4.84506 15.8536 4.88672 16.0095 4.96564 16.1469C5.04435 16.284 5.15736 16.3979 5.29341 16.4773C5.29388 16.4775 5.29436 16.4778 5.29483 16.4781L11.1448 19.8428V12.6035L4.84483 8.93533ZM12.9448 12.6035V19.8428L18.7948 16.4781C18.7953 16.4778 18.7958 16.4775 18.7963 16.4773C18.9323 16.3979 19.0453 16.284 19.124 16.1469C19.203 16.0094 19.2447 15.8534 19.2448 15.6945V8.93533L12.9448 12.6035ZM18.3097 7.38673L12.4948 4.04221C12.358 3.9627 12.2028 3.92083 12.0448 3.92083C11.8868 3.92083 11.7316 3.96269 11.5948 4.0422L11.5914 4.04421L5.77992 7.38673L12.0448 11.0344L18.3097 7.38673Z" fill="white"/>
</svg>
