<svg width="24" height="24" viewBox="0 0 24 24" fill="none" xmlns="http://www.w3.org/2000/svg">
<path fill-rule="evenodd" clip-rule="evenodd" d="M3.91507 6.27018L12 11.8039L20.0849 6.27018C19.9346 5.97949 19.6254 5.77778 19.2727 5.77778H4.72727C4.37458 5.77778 4.06542 5.97949 3.91507 6.27018ZM20.1818 8.37392L12.5213 13.6171C12.2083 13.8313 11.7917 13.8313 11.4787 13.6171L3.81818 8.37392V17.3333C3.81818 17.8202 4.22935 18.2222 4.72727 18.2222H19.2727C19.7707 18.2222 20.1818 17.8202 20.1818 17.3333V8.37392ZM2 6.66667C2 5.19797 3.2252 4 4.72727 4H19.2727C20.7748 4 22 5.19797 22 6.66667V17.3333C22 18.802 20.7748 20 19.2727 20H4.72727C3.2252 20 2 18.802 2 17.3333V6.66667Z" fill="white"/>
</svg>
