<svg width="24" height="24" viewBox="0 0 24 24" fill="none" xmlns="http://www.w3.org/2000/svg">
<path d="M8.62238 3.75591C9.07673 3.39619 9.12849 2.76721 8.73735 2.34908C8.34526 1.92993 7.65657 1.88139 7.19912 2.24066L6.98162 2.42611L6.4915 2.90364C6.09438 3.3195 5.57462 3.93304 5.05769 4.74502C4.02137 6.37286 3 8.79388 3 11.9959C3 15.1979 4.02137 17.619 5.05769 19.2468C5.57462 20.0588 6.09438 20.6723 6.4915 21.0882L6.91618 21.5076C7.57243 22.1871 8.2857 22.0957 8.73735 21.6427C9.09211 21.287 9.1193 20.5822 8.57385 20.2035L8.13348 19.7717C7.81468 19.4379 7.37991 18.9269 6.94229 18.2395C6.06952 16.8685 5.18181 14.7914 5.18181 11.9959C5.18181 9.20041 6.06952 7.12328 6.94229 5.75235C7.37991 5.06495 7.81468 4.55395 8.13348 4.22011C8.29273 4.05335 8.4225 3.93135 8.50841 3.85424C8.55134 3.8157 8.58324 3.78845 8.6023 3.77248L8.62101 3.75702L8.62238 3.75591Z" fill="white"/>
<path d="M15.3776 3.75593C14.9233 3.39621 14.8715 2.76723 15.2626 2.3491C15.6547 1.92995 16.3434 1.88141 16.8009 2.24068L17.0184 2.42613L17.5085 2.90366C17.9056 3.31952 18.4254 3.93305 18.9423 4.74504C19.9786 6.37288 21 8.7939 21 11.9959C21 15.198 19.9786 17.619 18.9423 19.2468C18.4254 20.0588 17.9056 20.6723 17.5085 21.0882L17.0838 21.5077C16.4276 22.1871 15.7143 22.0957 15.2626 21.6428C14.9079 21.287 14.8807 20.5823 15.4262 20.2035L15.8665 19.7717C16.1853 19.4379 16.6201 18.9269 17.0577 18.2395C17.9305 16.8686 18.8182 14.7914 18.8182 11.9959C18.8182 9.20042 17.9305 7.1233 17.0577 5.75237C16.6201 5.06497 16.1853 4.55397 15.8665 4.22013C15.7073 4.05336 15.5775 3.93137 15.4916 3.85426C15.4487 3.81572 15.4168 3.78846 15.3977 3.77249L15.379 3.75703L15.3776 3.75593Z" fill="white"/>
</svg>
