<svg width="24" height="24" viewBox="0 0 24 24" fill="none" xmlns="http://www.w3.org/2000/svg">
<path fill-rule="evenodd" clip-rule="evenodd" d="M7.89005 2.97703C8.70226 2.34531 9.75723 2 10.8031 2H13.59C14.7512 2 15.8288 2.57057 16.5962 3.33796C17.3041 4.04581 17.8444 5.01759 17.924 6.07555C18.9813 6.15562 19.9524 6.6958 20.6598 7.40324C21.4272 8.17062 21.9977 9.2482 21.9977 10.4095V12.639C21.9977 13.6876 21.6624 14.6502 20.9769 15.3561C20.2881 16.0654 19.3324 16.4258 18.2672 16.4258H17.5388V18.2126C17.5388 19.4129 16.9307 20.3823 16.1077 21.0224C15.2955 21.6541 14.2405 21.9994 13.1946 21.9994H10.4078C9.24651 21.9994 8.16893 21.4289 7.40154 20.6615C6.69369 19.9536 6.1533 18.9819 6.07372 17.9239C5.01647 17.8438 4.0454 17.3036 3.33795 16.5962C2.57057 15.8288 2 14.7512 2 13.59V11.3605C2 10.3119 2.33535 9.34923 3.02084 8.64336C3.70966 7.93407 4.66539 7.57366 5.73053 7.57366H6.45893V5.78683C6.45893 4.58654 7.06701 3.61717 7.89005 2.97703ZM8.45893 7.0163H10.2458C10.2781 7.0163 10.3108 7.01626 10.3438 7.01622C10.8097 7.01569 11.3319 7.01509 11.7263 7.11893C11.9685 7.1827 12.2902 7.31439 12.5385 7.61665C12.7952 7.92905 12.8616 8.2859 12.8616 8.57366V9.57366H5.73053C5.12357 9.57366 4.71403 9.77062 4.45561 10.0367C4.19386 10.3062 4 10.737 4 11.3605V13.59C4 14.1008 4.26548 14.6953 4.75217 15.182C5.10317 15.533 5.51024 15.7689 5.90156 15.8732V14.7047C5.90156 13.6414 6.26036 12.6776 6.96084 11.9771C7.66131 11.2767 8.6251 10.9179 9.6884 10.9179H13.59C14.2162 10.9179 14.8333 10.7058 15.2752 10.3621C15.7062 10.0269 15.9342 9.60284 15.9342 9.13103V6.3442C15.9342 5.83338 15.6687 5.23886 15.182 4.75217C14.6953 4.26548 14.1008 4 13.59 4H10.8031C10.1769 4 9.5598 4.21205 9.11793 4.55573C8.6869 4.89098 8.45893 5.31503 8.45893 5.78683V7.0163ZM18.0962 8.12624V9.29475C18.0962 10.358 17.7374 11.3218 17.0369 12.0223C16.3364 12.7228 15.3727 13.0816 14.3094 13.0816H10.4078C9.78159 13.0816 9.16446 13.2936 8.72259 13.6373C8.29156 13.9726 8.06359 14.3966 8.06359 14.8684V17.6552C8.06359 18.1661 8.32907 18.7606 8.81576 19.2473C9.30245 19.734 9.89697 19.9994 10.4078 19.9994H13.1946C13.8208 19.9994 14.4379 19.7874 14.8798 19.4437C15.3108 19.1085 15.5388 18.6844 15.5388 18.2126V16.9831H13.752C13.7196 16.9831 13.6869 16.9832 13.654 16.9832C13.188 16.9838 12.6658 16.9844 12.2714 16.8805C12.0292 16.8167 11.7075 16.6851 11.4592 16.3828C11.2026 16.0704 11.1362 15.7135 11.1362 15.4258V14.4258H18.2672C18.8742 14.4258 19.2837 14.2288 19.5421 13.9627C19.8039 13.6932 19.9977 13.2624 19.9977 12.639V10.4095C19.9977 9.89867 19.7323 9.30415 19.2456 8.81745C18.8946 8.46646 18.4875 8.23052 18.0962 8.12624Z" fill="white"/>
<path d="M10.5473 6.48549C11.0092 6.48549 11.3837 6.11103 11.3837 5.64911C11.3837 5.18719 11.0092 4.81273 10.5473 4.81273C10.0854 4.81273 9.71095 5.18719 9.71095 5.64911C9.71095 6.11103 10.0854 6.48549 10.5473 6.48549Z" fill="white"/>
<path d="M13.1944 17.6547C12.7325 17.6547 12.358 18.0291 12.358 18.491C12.358 18.953 12.7325 19.3274 13.1944 19.3274C13.6563 19.3274 14.0308 18.953 14.0308 18.491C14.0308 18.0291 13.6563 17.6547 13.1944 17.6547Z" fill="white"/>
</svg>
