<svg width="24" height="24" viewBox="0 0 24 24" fill="none" xmlns="http://www.w3.org/2000/svg">
<path fill-rule="evenodd" clip-rule="evenodd" d="M6.1508 6.36551C6.29847 3.82228 8.42759 2 10.8941 2H13.1059C15.5724 2 17.7015 3.82228 17.8492 6.36551C17.9327 7.80299 18 9.68116 18 12C18 14.3188 17.9327 16.197 17.8492 17.6345C17.7015 20.1777 15.5724 22 13.1059 22H10.8941C8.42759 22 6.29847 20.1777 6.1508 17.6345C6.06732 16.197 6 14.3188 6 12C6 9.68116 6.06732 7.80299 6.1508 6.36551ZM10.8941 4C9.40521 4 8.22905 5.07585 8.14743 6.48145C8.0662 7.88039 8 9.7199 8 12C8 14.2801 8.0662 16.1196 8.14743 17.5186C8.22905 18.9241 9.40521 20 10.8941 20H13.1059C14.5948 20 15.7709 18.9241 15.8526 17.5186C15.9338 16.1196 16 14.2801 16 12C16 9.7199 15.9338 7.88039 15.8526 6.48145C15.7709 5.07585 14.5948 4 13.1059 4H10.8941Z" fill="white"/>
<path d="M11 7.11111C11 6.49746 11.4477 6 12 6C12.5523 6 13 6.49746 13 7.11111V9.33333C13 9.94698 12.5523 10.4444 12 10.4444C11.4477 10.4444 11 9.94698 11 9.33333V7.11111Z" fill="white"/>
</svg>
