<svg width="24" height="24" viewBox="0 0 24 24" fill="none" xmlns="http://www.w3.org/2000/svg">
<path fill-rule="evenodd" clip-rule="evenodd" d="M16.8415 4.13148C15.9339 3.91287 14.9786 3.96786 14.1046 4.28901C13.2306 4.61016 12.4801 5.18197 11.9547 5.92711C11.435 6.66407 11.1603 7.5354 11.1665 8.42563C10.1187 8.34982 9.09375 8.07705 8.15055 7.62C6.96475 7.04541 5.94497 6.1974 5.18203 5.15152C5.00949 4.915 4.71815 4.7861 4.41935 4.8141C4.05706 4.84804 3.83882 4.98793 3.58781 5.65633C3.50376 5.88014 3.39473 6.19885 3.28964 6.59003C3.08048 7.36864 2.8815 8.45441 2.93844 9.6603C2.99554 10.8697 3.31126 12.2165 4.14762 13.4878C4.77458 14.4408 5.67638 15.3243 6.929 16.0684C5.6637 16.6296 4.2722 16.8987 2.86653 16.8448C2.48094 16.8301 2.13525 17.0721 2.03104 17.4298C1.92684 17.7875 2.09137 18.1673 2.42871 18.3477C6.40912 20.4766 10.8758 20.4965 14.3707 18.7056C17.8859 16.9044 20.3333 13.3142 20.3333 8.42048L20.3333 8.41783C20.3328 8.28766 20.3264 8.15764 20.314 8.02816C21.1187 7.16861 21.6908 6.12855 21.9763 5.00015C22.0585 4.67524 21.9227 4.33532 21.6356 4.14714C21.3484 3.95896 20.9701 3.96199 20.6863 4.15475C20.0959 4.55567 19.454 4.87979 18.7772 5.11928C18.2269 4.64551 17.5631 4.30532 16.8415 4.13148ZM4.83727 7.25208C4.6842 7.89499 4.56196 8.71029 4.60338 9.58744C4.65044 10.5843 4.90763 11.6443 5.55564 12.6293C6.2003 13.6092 7.26342 14.5636 9.00515 15.3088C9.28166 15.4271 9.46982 15.6804 9.49673 15.9706C9.52365 16.2607 9.38508 16.5421 9.13473 16.7057C8.20896 17.3107 7.19522 17.7658 6.13348 18.0602C8.77526 18.7081 11.4225 18.3987 13.5876 17.2892C16.5304 15.7813 18.6662 12.7534 18.6666 8.42182C18.666 8.24846 18.6486 8.07552 18.6148 7.90523C18.5626 7.64221 18.6501 7.37143 18.8482 7.1834C19.0338 7.00715 19.2057 6.81931 19.363 6.62142C19.1743 6.68846 18.9833 6.75001 18.7903 6.80597C18.4764 6.89695 18.1363 6.80236 17.9212 6.56425C17.5313 6.1327 17.0132 5.82683 16.4369 5.68801C15.8606 5.54919 15.2539 5.58411 14.6989 5.78805C14.1439 5.99199 13.6673 6.35511 13.3336 6.8283C13 7.3015 12.8253 7.86193 12.8333 8.4338L12.8334 8.44455L12.8333 9.24681C12.8333 9.68178 12.4733 10.0375 12.0216 10.0488C10.4198 10.0888 8.83253 9.74677 7.40123 9.05321C6.44659 8.59062 5.5811 7.98123 4.83727 7.25208Z" fill="white"/>
</svg>
